<svg width="285" height="61" viewBox="0 0 285 61" fill="none" xmlns="http://www.w3.org/2000/svg">
<path d="M17.4272 36.0241C12.42 36.0241 8.27304 34.3469 4.95714 30.9672C1.64124 27.5874 0 23.3861 0 18.3547C0 13.3234 1.64542 9.19016 4.96132 5.83592C8.27304 2.48168 12.3991 0.804565 17.3354 0.804565C21.5283 0.804565 25.053 1.89001 27.8803 4.06516C30.7075 6.2403 32.5618 8.81557 33.4179 11.791L27.045 13.3744C26.4645 11.6037 25.3077 10.0926 23.5704 8.8624C21.8331 7.63223 19.7701 7.01927 17.3604 7.01927C14.1615 7.01927 11.568 8.10471 9.59689 10.3011C7.62573 12.4976 6.63179 15.1665 6.63179 18.3079C6.63179 21.4493 7.6299 24.165 9.62195 26.4125C11.614 28.6558 14.1865 29.7668 17.3646 29.7668C19.7743 29.7668 21.8624 29.1538 23.5997 27.9492C25.337 26.7446 26.4979 25.2547 27.0742 23.484L33.3761 25.1356C32.5659 28.0897 30.7326 30.6394 27.9053 32.789C25.078 34.9386 21.5993 36.0028 17.4982 36.0028L17.4272 36.0283V36.0241Z" fill="white"/>
<path d="M49.1335 36.0027C45.4251 36.0027 42.3639 34.7726 39.9334 32.2952C37.5028 29.8178 36.2959 26.7445 36.2959 23.0583C36.2959 19.372 37.5237 16.303 39.9584 13.8469C42.3931 11.3908 45.4501 10.1606 49.1586 10.1606C52.867 10.1606 55.9282 11.3908 58.3587 13.8469C60.7934 16.303 61.9962 19.3763 61.9962 23.0583C61.9962 26.7403 60.7893 29.8136 58.3587 32.2952C55.924 34.7768 52.867 36.0027 49.1795 36.0027H49.1335ZM53.9988 28.1833C55.2516 26.8382 55.8781 25.1355 55.8781 23.0796C55.8781 21.0236 55.2516 19.3252 53.9988 17.9758C52.7459 16.6265 51.1256 15.9667 49.1335 15.9667C47.1415 15.9667 45.5169 16.6265 44.2682 17.9758C43.0196 19.3252 42.389 21.0236 42.389 23.0796C42.389 25.1355 43.0154 26.8339 44.2682 28.1833C45.5211 29.5326 47.1415 30.1924 49.1335 30.1924C51.1256 30.1924 52.7501 29.5326 53.9988 28.1833Z" fill="white"/>
<path d="M80.7216 10.182C83.8036 10.182 86.1465 11.1525 87.7668 13.0893C89.3872 15.026 90.2015 17.6737 90.2015 21.0279V35.343H83.9205V22.2325C83.9205 20.317 83.482 18.8315 82.6217 17.746C81.7656 16.6606 80.4877 16.1157 78.7964 16.1157C77.105 16.1157 75.6684 16.7542 74.6035 18.0525C73.5385 19.3508 73.004 21.0747 73.004 23.2243V35.3175H66.748V10.8418H73.004V13.9363C74.9292 11.4079 77.5017 10.1564 80.7216 10.1564V10.182Z" fill="white"/>
<path d="M107.608 36.024C103.736 36.024 100.608 34.8407 98.1986 32.4825C95.789 30.1201 94.582 27 94.582 23.1264C94.582 19.2529 95.743 16.3243 98.0608 13.8682C100.379 11.4121 103.415 10.1819 107.144 10.1819C110.873 10.1819 114.005 11.361 116.227 13.749C118.453 16.137 119.564 19.1337 119.564 22.7476C119.564 23.7394 119.518 24.497 119.426 25.0164H100.771C100.98 26.6935 101.677 28.0386 102.859 29.0559C104.041 30.0733 105.661 30.567 107.75 30.567C110.531 30.567 112.477 29.4816 113.588 27.332L119.242 29.0346C118.453 30.8778 117.062 32.5081 115.05 33.9C113.037 35.2919 110.577 36.0028 107.679 36.0028L107.608 36.0283V36.024ZM113.425 21.0236C113.262 19.487 112.615 18.1887 111.479 17.1501C110.343 16.1115 108.881 15.5921 107.077 15.5921C105.273 15.5921 103.903 16.137 102.742 17.1969C101.581 18.2611 100.913 19.5338 100.725 21.0236H113.425Z" fill="white"/>
<path d="M135.514 36.0709C131.83 36.0709 128.794 34.8194 126.38 32.3378C123.966 29.8562 122.764 26.7616 122.764 23.0796C122.764 19.3976 123.971 16.3243 126.38 13.8682C128.79 11.4121 131.826 10.1819 135.463 10.1819C138.546 10.1819 141.143 11.0077 143.252 12.6636C145.361 14.3151 146.681 16.1583 147.215 18.2142L141.377 19.9169C141.097 18.8059 140.425 17.8609 139.36 17.0607C138.295 16.2562 137.017 15.8561 135.514 15.8561C133.588 15.8561 132.014 16.5627 130.807 17.9588C129.6 19.355 128.999 21.0534 128.999 23.0626C128.999 25.0717 129.6 26.7233 130.828 28.1663C132.056 29.6093 133.63 30.3159 135.555 30.3159C137.038 30.3159 138.312 29.937 139.402 29.1581C140.492 28.3791 141.164 27.4554 141.44 26.3955L147.282 28.0471C146.748 30.1499 145.453 31.993 143.365 33.5978C141.277 35.2025 138.704 36.007 135.622 36.007L135.505 36.0794L135.514 36.0709Z" fill="white"/>
<path d="M167.081 34.5385C165.181 35.3175 163.302 35.6963 161.472 35.6963C158.808 35.6963 156.812 34.9173 155.471 33.3807C154.131 31.844 153.454 29.6944 153.454 26.9574V16.4435H149.42V10.846H153.454V2.90735H159.756V10.846H166.78V16.4435H159.756V26.9574C159.756 29.0134 160.729 30.052 162.7 30.052C163.719 30.052 164.671 29.8179 165.553 29.3667L167.081 34.5385Z" fill="white"/>
<path d="M180.616 36.024C177.254 36.024 174.452 34.7939 172.18 32.3165C169.908 29.8391 168.772 26.7658 168.772 23.1051C168.772 19.4444 169.908 16.303 172.18 13.8469C174.452 11.3908 177.279 10.1606 180.641 10.1606C184.003 10.1606 186.505 11.3653 188.359 13.8001V10.846H194.686V35.3174H188.359V32.3165C186.505 34.7726 183.932 36.0027 180.641 36.0027L180.616 36.0283V36.024ZM181.706 30.2605C183.631 30.2605 185.252 29.5752 186.571 28.2046C187.891 26.8339 188.543 25.11 188.543 23.0072C188.543 20.9044 187.895 19.2528 186.571 17.9035C185.252 16.5584 183.627 15.8731 181.706 15.8731C179.785 15.8731 178.115 16.5328 176.841 17.8822C175.567 19.2273 174.941 20.9512 174.941 23.054C174.941 25.1568 175.567 26.9276 176.841 28.2727C178.115 29.6178 179.739 30.3031 181.706 30.3031V30.2563V30.2605Z" fill="white"/>
<path d="M214.823 10.182C217.905 10.182 220.248 11.1525 221.868 13.0893C223.489 15.026 224.303 17.6737 224.303 21.0279V35.343H218.022V22.2325C218.022 20.317 217.584 18.8315 216.723 17.746C215.867 16.6606 214.589 16.1157 212.898 16.1157C211.207 16.1157 209.77 16.7542 208.705 18.0525C207.64 19.3508 207.106 21.0747 207.106 23.2243V35.3175H200.85V10.8418H207.106V13.9363C209.031 11.4079 211.603 10.1564 214.823 10.1564V10.182Z" fill="white"/>
<path d="M254.619 0.0255399V35.3429H248.292V32.342C246.412 34.7981 243.84 36.0283 240.574 36.0283C237.308 36.0283 234.41 34.7981 232.138 32.3207C229.866 29.8433 228.73 26.77 228.73 23.1093C228.73 19.4486 229.866 16.3072 232.138 13.8511C234.41 11.395 237.237 10.1649 240.599 10.1649C243.961 10.1649 246.463 11.3695 248.317 13.8043V0L254.619 0.0255399ZM241.664 30.2648C243.589 30.2648 245.21 29.5794 246.529 28.2088C247.849 26.8382 248.501 25.1142 248.501 23.0114C248.501 20.9086 247.853 19.2571 246.529 17.9077C245.21 16.5626 243.585 15.8773 241.664 15.8773C239.743 15.8773 238.073 16.5371 236.799 17.8864C235.525 19.2315 234.899 20.9555 234.899 23.0583C234.899 25.161 235.525 26.9318 236.799 28.2769C238.073 29.622 239.697 30.3073 241.664 30.3073V30.2605V30.2648Z" fill="white"/>
<path d="M272.137 36.0027C268.429 36.0027 265.368 34.7726 262.937 32.2952C260.507 29.8178 259.3 26.7445 259.3 23.0583C259.3 19.372 260.528 16.303 262.962 13.8469C265.397 11.3908 268.454 10.1606 272.162 10.1606C275.871 10.1606 278.932 11.3908 281.363 13.8469C283.797 16.303 285 19.3763 285 23.0583C285 26.7403 283.793 29.8136 281.363 32.2952C278.928 34.7768 275.871 36.0027 272.183 36.0027H272.137ZM277.003 28.1833C278.256 26.8382 278.882 25.1355 278.882 23.0796C278.882 21.0236 278.256 19.3252 277.003 17.9758C275.75 16.6265 274.129 15.9667 272.137 15.9667C270.145 15.9667 268.521 16.6265 267.272 17.9758C266.023 19.3252 265.393 21.0236 265.393 23.0796C265.393 25.1355 266.019 26.8339 267.272 28.1833C268.525 29.5326 270.145 30.1924 272.137 30.1924C274.129 30.1924 275.754 29.5326 277.003 28.1833Z" fill="white"/>
<path d="M16.2758 45.3333V60.5156H15.194V47.2061L9.35316 55.6951L3.52125 47.2061V60.5156H2.43945V45.3333H3.47673L9.34871 53.854L15.2296 45.3333H16.2669H16.2758Z" fill="white"/>
<path d="M24.4626 60.7831C22.8644 60.7831 21.5511 60.2661 20.5228 59.2367C19.4944 58.2073 18.9824 56.8424 18.9824 55.1418C18.9824 53.5411 19.481 52.2079 20.4693 51.1377C21.4576 50.0675 22.7353 49.5278 24.2935 49.5278C25.8516 49.5278 27.1738 50.0357 28.0953 51.0424C29.0213 52.0491 29.4888 53.3189 29.4888 54.8516C29.4888 55.1146 29.4799 55.3368 29.4665 55.5182H20.0598C20.1132 56.8016 20.5361 57.8264 21.3374 58.6109C22.1388 59.3954 23.1761 59.7854 24.4537 59.7854C25.3975 59.7854 26.2211 59.5541 26.9067 59.0871C27.5923 58.62 28.082 58.0486 28.3847 57.3729L29.3908 57.6813C28.9634 58.5792 28.3402 59.3229 27.521 59.9033C26.7019 60.4838 25.6691 60.7831 24.4359 60.7831H24.4582H24.4626ZM28.4426 54.5387C28.358 53.3234 27.9529 52.3484 27.2272 51.6183C26.5016 50.8883 25.5222 50.5164 24.2846 50.5164C23.047 50.5164 22.1343 50.9064 21.3419 51.6909C20.5539 52.4754 20.1265 53.4277 20.0509 54.5614L28.4381 54.5387H28.4426Z" fill="white"/>
<path d="M37.3654 49.5279C38.6654 49.5279 39.7027 49.9405 40.4728 50.7658C41.243 51.5912 41.6259 52.7339 41.6259 54.1941V60.5246H40.5886V54.2984C40.5886 53.1148 40.2992 52.1897 39.716 51.5367C39.1328 50.8792 38.3137 50.5527 37.2408 50.5527C36.0343 50.5527 35.0594 50.9654 34.3115 51.7998C33.5636 52.6342 33.1896 53.727 33.1896 55.0693V60.511H32.1523V49.7773H33.1896V51.9902C33.5725 51.2374 34.1245 50.6343 34.8413 50.1899C35.558 49.7455 36.3994 49.5233 37.3788 49.5233H37.3699L37.3654 49.5279Z" fill="white"/>
<path d="M47.0476 50.7885V57.4681C47.0476 58.9193 47.6931 59.6403 48.9797 59.6403C49.5184 59.6403 50.0704 59.5042 50.6224 59.2276L50.9341 60.2253C50.2262 60.5336 49.5406 60.6787 48.8773 60.6787C47.9335 60.6787 47.2123 60.3931 46.7271 59.8217C46.2374 59.2503 46.0014 58.4658 46.0014 57.4591V50.7794H43.7666V49.7863H46.0014V45.9771H47.0521V49.7863H50.9385V50.7794L47.0521 50.7885H47.0476Z" fill="white"/>
<path d="M57.6374 60.7831C56.0392 60.7831 54.7259 60.2661 53.6976 59.2367C52.6692 58.2073 52.1572 56.8424 52.1572 55.1418C52.1572 53.5411 52.6558 52.2079 53.6441 51.1377C54.6324 50.0675 55.9101 49.5278 57.4683 49.5278C59.0264 49.5278 60.3486 50.0357 61.2701 51.0424C62.1961 52.0491 62.6636 53.3189 62.6636 54.8516C62.6636 55.1146 62.6547 55.3368 62.6413 55.5182H53.2346C53.288 56.8016 53.7109 57.8264 54.5122 58.6109C55.3136 59.3954 56.3509 59.7854 57.6285 59.7854C58.5723 59.7854 59.3959 59.5541 60.0815 59.0871C60.7671 58.62 61.2568 58.0486 61.5595 57.3729L62.5656 57.6813C62.1382 58.5792 61.515 59.3229 60.6959 59.9033C59.8767 60.4838 58.8439 60.7831 57.6107 60.7831H57.633H57.6374ZM61.6174 54.5387C61.5328 53.3234 61.1277 52.3484 60.402 51.6183C59.6764 50.8883 58.697 50.5164 57.4594 50.5164C56.2218 50.5164 55.3091 50.9064 54.5167 51.6909C53.7287 52.4754 53.3013 53.4277 53.2257 54.5614L61.6129 54.5387H61.6174Z" fill="white"/>
<path d="M69.0743 60.7603C67.9524 60.7603 66.9641 60.452 66.1004 59.8489C65.2368 59.2457 64.6759 58.4703 64.4043 57.5407L65.4238 57.2641C65.6196 57.9715 66.0559 58.5655 66.7326 59.0417C67.4093 59.5178 68.1884 59.7491 69.0698 59.7491C69.9513 59.7491 70.7215 59.5496 71.3046 59.1369C71.8878 58.7242 72.1772 58.2254 72.1772 57.6359C72.1772 57.1598 72.0436 56.7879 71.781 56.5249C71.5183 56.2619 71.0732 56.0397 70.441 55.8583L67.2935 54.906C66.5768 54.6838 66.007 54.389 65.5662 54.0081C65.1299 53.6272 64.9118 53.0876 64.9118 52.3983C64.9118 51.6138 65.2635 50.9381 65.9713 50.3667C66.6792 49.7953 67.5517 49.5096 68.5801 49.5096C69.6619 49.5096 70.5745 49.7636 71.3225 50.2715C72.0704 50.7794 72.609 51.4142 72.934 52.1897L71.9368 52.4844C71.7409 51.9357 71.3358 51.4687 70.7215 51.0877C70.1071 50.7068 69.3814 50.5164 68.5401 50.5164C67.6987 50.5164 67.1066 50.7159 66.6258 51.1195C66.1494 51.5231 65.909 51.9675 65.909 52.4527C65.909 52.8427 66.0559 53.151 66.3364 53.3732C66.6169 53.5954 67.0442 53.795 67.6141 53.9764L70.806 54.9513C72.3953 55.4275 73.1967 56.3163 73.2056 57.6178C73.2056 58.5292 72.8094 59.282 72.0214 59.8851C71.2334 60.4883 70.2451 60.783 69.0476 60.783L69.0698 60.7603H69.0743Z" fill="white"/>
<path d="M86.4988 60.7831C84.9006 60.7831 83.5873 60.2661 82.5589 59.2367C81.5305 58.2073 81.0186 56.8424 81.0186 55.1418C81.0186 53.5411 81.5172 52.2079 82.5055 51.1377C83.4938 50.0675 84.7715 49.5278 86.3296 49.5278C87.8877 49.5278 89.2099 50.0357 90.1315 51.0424C91.0575 52.0491 91.5249 53.3189 91.5249 54.8516C91.5249 55.1146 91.516 55.3368 91.5026 55.5182H82.0959C82.1493 56.8016 82.5723 57.8264 83.3736 58.6109C84.1749 59.3954 85.2122 59.7854 86.4899 59.7854C87.4337 59.7854 88.2572 59.5541 88.9428 59.0871C89.6284 58.62 90.1181 58.0486 90.4208 57.3729L91.427 57.6813C90.9996 58.5792 90.3763 59.3229 89.5572 59.9033C88.738 60.4838 87.7052 60.7831 86.4721 60.7831H86.4943H86.4988ZM90.4787 54.5387C90.3941 53.3234 89.989 52.3484 89.2634 51.6183C88.5377 50.8883 87.5583 50.5164 86.3207 50.5164C85.0831 50.5164 84.1705 50.9064 83.378 51.6909C82.5901 52.4754 82.1627 53.4277 82.087 54.5614L90.4743 54.5387H90.4787Z" fill="white"/>
<path d="M106.188 45.3469C107.635 45.3469 108.788 45.823 109.638 46.7889C110.488 47.7503 110.916 48.8431 110.916 50.0721C110.916 51.301 110.488 52.4029 109.638 53.3416C108.788 54.2848 107.612 54.7474 106.126 54.7474H100.908V60.5156H99.8262V45.3333H106.188V45.3423V45.3469ZM106.103 53.7633C107.256 53.7633 108.173 53.3915 108.846 52.6614C109.522 51.9313 109.865 51.0606 109.865 50.0675C109.865 49.0744 109.522 48.2037 108.837 47.4736C108.151 46.7436 107.256 46.3717 106.166 46.3717H100.908V53.7407H106.103V53.7633Z" fill="white"/>
<path d="M117.514 60.7831C115.916 60.7831 114.603 60.2661 113.575 59.2367C112.546 58.2073 112.034 56.8424 112.034 55.1418C112.034 53.5411 112.533 52.2079 113.521 51.1377C114.509 50.0675 115.787 49.5278 117.345 49.5278C118.903 49.5278 120.226 50.0357 121.147 51.0424C122.073 52.0491 122.541 53.3189 122.541 54.8516C122.541 55.1146 122.532 55.3368 122.518 55.5182H113.112C113.165 56.8016 113.588 57.8264 114.389 58.6109C115.191 59.3954 116.228 59.7854 117.505 59.7854C118.449 59.7854 119.273 59.5541 119.958 59.0871C120.644 58.62 121.134 58.0486 121.436 57.3729L122.443 57.6813C122.015 58.5792 121.392 59.3229 120.573 59.9033C119.754 60.4838 118.721 60.7831 117.488 60.7831H117.51H117.514ZM121.494 54.5387C121.41 53.3234 121.005 52.3484 120.279 51.6183C119.553 50.8883 118.574 50.5164 117.336 50.5164C116.099 50.5164 115.186 50.9064 114.394 51.6909C113.606 52.4754 113.178 53.4277 113.103 54.5614L121.49 54.5387H121.494Z" fill="white"/>
<path d="M128.957 60.7603C127.835 60.7603 126.847 60.452 125.983 59.8489C125.12 59.2457 124.559 58.4703 124.287 57.5407L125.307 57.2641C125.502 57.9715 125.939 58.5655 126.615 59.0417C127.292 59.5178 128.071 59.7491 128.953 59.7491C129.834 59.7491 130.604 59.5496 131.187 59.1369C131.771 58.7242 132.06 58.2254 132.06 57.6359C132.06 57.1598 131.926 56.7879 131.664 56.5249C131.401 56.2619 130.956 56.0397 130.324 55.8583L127.176 54.906C126.46 54.6838 125.89 54.389 125.449 54.0081C125.013 53.6272 124.795 53.0876 124.795 52.3983C124.795 51.6138 125.146 50.9381 125.854 50.3667C126.562 49.7953 127.435 49.5096 128.463 49.5096C129.545 49.5096 130.457 49.7636 131.205 50.2715C131.953 50.7794 132.492 51.4142 132.817 52.1897L131.82 52.4844C131.624 51.9357 131.219 51.4687 130.604 51.0877C129.99 50.7068 129.264 50.5164 128.423 50.5164C127.581 50.5164 126.989 50.7159 126.509 51.1195C126.032 51.5231 125.792 51.9675 125.792 52.4527C125.792 52.8427 125.939 53.151 126.219 53.3732C126.5 53.5954 126.927 53.795 127.497 53.9764L130.689 54.9513C132.278 55.4275 133.079 56.3163 133.088 57.6178C133.088 58.5292 132.692 59.282 131.904 59.8851C131.116 60.4883 130.128 60.783 128.93 60.783L128.953 60.7603H128.957Z" fill="white"/>
<path d="M139.488 60.7603C138.366 60.7603 137.378 60.452 136.515 59.8489C135.651 59.2457 135.09 58.4703 134.818 57.5407L135.838 57.2641C136.034 57.9715 136.47 58.5655 137.147 59.0417C137.823 59.5178 138.602 59.7491 139.484 59.7491C140.365 59.7491 141.136 59.5496 141.719 59.1369C142.302 58.7242 142.591 58.2254 142.591 57.6359C142.591 57.1598 142.458 56.7879 142.195 56.5249C141.932 56.2619 141.487 56.0397 140.855 55.8583L137.708 54.906C136.991 54.6838 136.421 54.389 135.98 54.0081C135.544 53.6272 135.326 53.0876 135.326 52.3983C135.326 51.6138 135.678 50.9381 136.385 50.3667C137.093 49.7953 137.966 49.5096 138.994 49.5096C140.076 49.5096 140.989 49.7636 141.737 50.2715C142.484 50.7794 143.023 51.4142 143.348 52.1897L142.351 52.4844C142.155 51.9357 141.75 51.4687 141.136 51.0877C140.521 50.7068 139.796 50.5164 138.954 50.5164C138.113 50.5164 137.521 50.7159 137.04 51.1195C136.563 51.5231 136.323 51.9675 136.323 52.4527C136.323 52.8427 136.47 53.151 136.75 53.3732C137.031 53.5954 137.458 53.795 138.028 53.9764L141.22 54.9513C142.809 55.4275 143.611 56.3163 143.62 57.6178C143.62 58.5292 143.223 59.282 142.435 59.8851C141.647 60.4883 140.659 60.783 139.462 60.783L139.484 60.7603H139.488Z" fill="white"/>
<path d="M151.118 60.7922C149.529 60.7922 148.206 60.2526 147.147 59.1733C146.087 58.094 145.558 56.7472 145.558 55.151C145.558 53.5548 146.087 52.217 147.147 51.1468C148.206 50.0766 149.538 49.537 151.127 49.537C152.716 49.537 154.007 50.0676 155.058 51.1378C156.108 52.2079 156.638 53.5412 156.638 55.1419C156.638 56.7427 156.117 58.085 155.067 59.1642C154.016 60.2435 152.707 60.7831 151.14 60.7831L151.118 60.7922ZM151.118 59.7946C152.378 59.7946 153.437 59.3502 154.297 58.4704C155.16 57.5907 155.588 56.4887 155.588 55.1782C155.588 53.8677 155.16 52.7657 154.297 51.8769C153.433 50.9881 152.373 50.5437 151.118 50.5437C149.863 50.5437 148.767 50.9881 147.908 51.8769C147.045 52.7657 146.608 53.8677 146.608 55.1782C146.608 56.4887 147.045 57.5907 147.908 58.4704C148.772 59.3502 149.84 59.781 151.118 59.781V59.79V59.7946Z" fill="white"/>
<path d="M164 60.8012C162.451 60.8012 161.173 60.2616 160.154 59.1823C159.134 58.1031 158.627 56.7562 158.627 55.16C158.627 53.5638 159.134 52.226 160.154 51.1604C161.173 50.0902 162.46 49.5505 164.009 49.5505C165.029 49.5505 165.932 49.7727 166.711 50.2171C167.491 50.6615 168.114 51.2737 168.572 52.0492V49.7954H169.61V60.5291H168.572V58.2527C168.136 59.0463 167.522 59.6721 166.734 60.1165C165.946 60.5609 165.038 60.7831 164.023 60.7831L164 60.8058V60.8012ZM164.116 59.8489C165.354 59.8489 166.404 59.4045 167.277 58.5066C168.149 57.6088 168.586 56.5068 168.586 55.2054C168.586 53.9039 168.149 52.8019 167.277 51.9041C166.404 51.0062 165.354 50.5618 164.116 50.5618C162.816 50.5618 161.748 51.0062 160.915 51.8859C160.083 52.7657 159.669 53.8676 159.669 55.2008C159.669 56.534 160.083 57.636 160.924 58.5157C161.765 59.3955 162.825 59.8263 164.116 59.8263V59.858V59.8489Z" fill="white"/>
<path d="M176.759 60.7603C175.637 60.7603 174.649 60.452 173.785 59.8489C172.921 59.2457 172.36 58.4703 172.089 57.5407L173.108 57.2641C173.304 57.9715 173.74 58.5655 174.417 59.0417C175.094 59.5178 175.873 59.7491 176.754 59.7491C177.636 59.7491 178.406 59.5496 178.989 59.1369C179.572 58.7242 179.862 58.2254 179.862 57.6359C179.862 57.1598 179.728 56.7879 179.466 56.5249C179.203 56.2619 178.758 56.0397 178.126 55.8583L174.978 54.906C174.261 54.6838 173.692 54.389 173.251 54.0081C172.815 53.6272 172.596 53.0876 172.596 52.3983C172.596 51.6138 172.948 50.9381 173.656 50.3667C174.364 49.7953 175.236 49.5096 176.265 49.5096C177.346 49.5096 178.259 49.7636 179.007 50.2715C179.755 50.7794 180.294 51.4142 180.619 52.1897L179.621 52.4844C179.425 51.9357 179.02 51.4687 178.406 51.0877C177.792 50.7068 177.066 50.5164 176.225 50.5164C175.383 50.5164 174.791 50.7159 174.31 51.1195C173.834 51.5231 173.594 51.9675 173.594 52.4527C173.594 52.8427 173.74 53.151 174.021 53.3732C174.301 53.5954 174.729 53.795 175.299 53.9764L178.491 54.9513C180.08 55.4275 180.881 56.3163 180.89 57.6178C180.89 58.5292 180.494 59.282 179.706 59.8851C178.918 60.4883 177.93 60.783 176.732 60.783L176.754 60.7603H176.759Z" fill="white"/>
<path d="M184.043 60.6653C183.772 60.6653 183.554 60.5791 183.389 60.4113C183.224 60.2435 183.14 60.0213 183.14 59.7538C183.14 59.4862 183.224 59.2686 183.389 59.0962C183.554 58.9239 183.772 58.8423 184.043 58.8423C184.315 58.8423 184.533 58.9285 184.698 59.0962C184.863 59.264 184.947 59.4772 184.947 59.7402C184.947 60.0032 184.863 60.2163 184.698 60.3841C184.533 60.5519 184.315 60.638 184.043 60.638V60.6607V60.6653Z" fill="white"/>
</svg>
