<svg width="132" height="142" viewBox="0 0 132 142" fill="none" xmlns="http://www.w3.org/2000/svg">
<path d="M131.56 14.2856V127.801C131.56 135.64 125.456 141.987 117.927 141.987C110.673 141.987 104.739 136.098 104.321 128.651C93.5635 137.04 80.3751 141.987 66.115 141.987C29.9745 141.987 0.669922 110.225 0.669922 71.0432V14.2856C0.669922 6.4466 6.77394 0.0994873 14.3027 0.0994873C21.8314 0.0994873 27.9355 6.4466 27.9355 14.2856V71.0432C27.9355 94.5602 45.0319 113.615 66.115 113.615C87.1981 113.615 104.295 94.5602 104.295 71.0432V14.2856C104.295 6.4466 110.399 0.0994873 117.927 0.0994873C125.456 0.0994873 131.56 6.4466 131.56 14.2856Z" fill="#93E663"/>
</svg>
