<svg width="105" height="189" viewBox="0 0 105 189" fill="none" xmlns="http://www.w3.org/2000/svg">
<path d="M98.8884 181.056C91.5296 186.252 82.8637 188.987 74.1586 188.987C49.4026 188.987 29.3653 167.564 29.3653 141.442V75.4718H13.6543C6.12554 75.4718 0.0214844 69.1246 0.0214844 61.2856C0.0214844 53.4466 6.12554 47.0995 13.6543 47.0995H29.3653V15.1546C29.3653 7.34173 35.4954 0.968445 42.998 0.968445C50.5006 0.968445 56.6307 7.35482 56.6307 15.1546V47.0995H85.1772C92.706 47.0995 98.81 53.4466 98.81 61.2856C98.81 69.1246 92.706 75.4718 85.1772 75.4718H56.6307V141.442C56.6307 151.964 64.4078 160.615 74.1586 160.615C77.4132 160.615 80.8377 159.542 83.661 157.644C89.8043 153.155 98.2087 154.817 102.522 161.426C106.613 167.812 105.032 176.79 98.8884 181.056Z" fill="#93E663"/>
</svg>
