<svg width="117" height="142" viewBox="0 0 117 142" fill="none" xmlns="http://www.w3.org/2000/svg">
<path d="M0.509766 71.0563C0.509766 32.123 29.9319 0.11261 66.9482 0.11261C83.731 0.11261 99.7557 6.81307 112.055 18.9707C117.519 24.3625 117.741 33.3532 112.552 39.0328C107.363 44.7125 98.7362 44.9481 93.2726 39.5563C86.0576 32.424 76.699 28.4979 66.9351 28.4979C45.3292 28.4979 27.7622 47.5916 27.7622 71.0694C27.7622 94.5341 45.3292 113.641 66.9351 113.641C76.699 113.641 86.0576 109.715 93.2726 102.582C98.7362 97.1907 107.363 97.4263 112.552 103.106C117.741 108.786 117.506 117.776 112.055 123.168C99.7426 135.326 83.731 142.026 66.9482 142.026C29.9581 142.026 0.509766 110.042 0.509766 71.0825V71.0563Z" fill="#93E663"/>
</svg>
