<svg width="110" height="142" viewBox="0 0 110 142" fill="none" xmlns="http://www.w3.org/2000/svg">
<path d="M6.58419 124.882C0.650087 120.053 -0.395541 111.141 4.24456 104.964C8.88467 98.7873 17.4591 97.7011 23.3801 102.543C31.5754 109.257 44.6723 113.366 55.7301 113.602C67.0363 113.89 82.4466 110.029 82.7211 99.2454C83.0087 87.7028 71.8594 87.0353 53.6911 85.1901C21.8378 81.9576 -0.774634 73.9223 0.0357508 42.1344C0.75464 14.0501 26.8046 -0.881996 56.0699 0.16495C72.6436 0.753858 90.8249 6.93084 103.451 17.2563C109.385 22.0854 110.431 30.9975 105.791 37.1745C101.151 43.3515 92.5895 44.4377 86.6554 39.6087C78.3163 32.7773 66.7356 29.1392 56.0699 28.5895C43.3129 27.9483 27.5758 32.1361 27.3013 42.8935C27.0138 54.436 38.163 55.1035 56.3313 56.9487C88.1847 60.1812 110.797 68.2165 109.987 100.004C109.294 127.526 84.6425 142.223 55.7301 141.948C37.954 141.778 19.1451 135.169 6.57111 124.882H6.58419Z" fill="#93E663"/>
</svg>
