<svg width="131" height="142" viewBox="0 0 131 142" fill="none" xmlns="http://www.w3.org/2000/svg">
<path d="M130.89 71.0563V127.814C130.89 135.653 124.786 142 117.257 142C109.729 142 103.625 135.653 103.625 127.814V71.0563C103.625 47.5392 86.5412 28.4848 65.4451 28.4848C44.362 28.4848 27.2655 47.5392 27.2655 71.0563V127.814C27.2655 135.653 21.1615 142 13.6328 142C6.10402 142 0 135.653 0 127.814V14.2856C0 6.4466 6.10402 0.0994873 13.6328 0.0994873C20.887 0.0994873 26.8211 5.98856 27.2394 13.435C37.9966 5.04631 51.1849 0.0994873 65.4451 0.0994873C101.586 0.0994873 130.89 31.8612 130.89 71.0432V71.0563Z" fill="#93E663"/>
</svg>
