<svg width="132" height="142" viewBox="0 0 132 142" fill="none" xmlns="http://www.w3.org/2000/svg">
<path d="M0.621094 72.5089C0.621094 32.4109 30.0171 0.11261 66.1054 0.11261C100.991 0.11261 129.707 30.2516 131.498 68.7399C131.681 72.6136 130.322 76.3957 127.747 79.2094C125.172 82.0231 121.604 83.6066 117.878 83.6066H30.1478C34.4481 100.881 50.2506 113.615 68.8372 113.615C80.3655 113.615 91.4756 108.681 99.2266 100.044C104.363 94.3116 112.99 93.9975 118.493 99.3369C123.996 104.676 124.309 113.654 119.172 119.386C106.285 133.755 87.8158 142 68.8372 142C31.3765 142 0.621094 111.128 0.621094 72.5089ZM100.494 55.2343C95.24 39.5825 81.751 28.4849 66.1054 28.4849C50.3421 28.4849 36.9708 39.7526 31.7294 55.2343H100.494Z" fill="#93E663"/>
</svg>
