<svg width="27" height="28" viewBox="0 0 27 28" fill="none" xmlns="http://www.w3.org/2000/svg">
<path id="Vector" d="M26.9997 13.558C26.9997 21.2399 21.2486 27.273 13.8637 27.273C6.47873 27.273 0.792969 21.253 0.792969 13.6365C0.792969 6.03303 6.47871 0 13.929 0C21.3924 0 26.9997 5.87599 26.9997 13.558ZM24.4771 13.558C24.4771 7.26319 20.0592 2.51267 13.929 2.51267C7.79885 2.51267 3.35486 7.38097 3.35486 13.6365C3.35486 19.892 7.81194 24.7603 13.8637 24.7603C19.9154 24.7603 24.4771 19.8527 24.4771 13.558ZM18.0463 16.1099L21.1963 21.1352H17.3405L14.6349 16.8035H14.4911H12.0861V21.1352H8.23021V6.13772H14.5041C18.4384 6.13772 20.7781 8.23162 20.7781 11.4641C20.7781 13.6627 19.8109 15.2462 18.0725 16.0968L18.0463 16.1099ZM14.2166 13.7935C15.9681 13.7935 16.9614 12.9429 16.9614 11.4771C16.9614 10.0114 15.955 9.12152 14.2166 9.12152H12.0207V13.7935H14.2166Z" fill="#93E663"/>
</svg>
