<svg width="108" height="108" viewBox="0 0 108 108" fill="none" xmlns="http://www.w3.org/2000/svg">
<path d="M53.9818 106.964C83.2428 106.964 106.964 83.2428 106.964 53.9818C106.964 24.7207 83.2428 1 53.9818 1C24.7207 1 1 24.7207 1 53.9818C1 83.2428 24.7207 106.964 53.9818 106.964Z" stroke="white" stroke-width="2" stroke-linecap="round" stroke-linejoin="round"/>
<g clip-path="url(#clip0_1016_445)">
<path d="M43.6123 25.895C43.6123 25.895 46.1751 36.779 47.2098 38.303L50.3263 43.9072C51.0909 44.9336 51.3672 46.2344 51.0849 47.4767L49.0419 56.4286C46.8815 55.4989 45.4844 53.3961 45.4844 51.0737V48.1749" stroke="white" stroke-width="2" stroke-linecap="round" stroke-linejoin="round"/>
<path d="M30.6484 25.895L33.6571 36.162C34.0666 37.6466 34.1539 39.568 33.9019 40.1575L31.9025 44.8393C31.4894 45.8072 31.3137 46.8574 31.3912 47.9052L31.636 51.2408" stroke="white" stroke-width="2" stroke-linecap="round" stroke-linejoin="round"/>
<path d="M40.6413 52.9448V55.8782L42.8454 59.9227C43.7748 61.3369 43.4076 63.2213 42.013 64.1975L39.2236 60.8059" stroke="white" stroke-width="2" stroke-linecap="round" stroke-linejoin="round"/>
<path d="M43.2949 61.009L44.5066 64.7886C46.5302 64.1823 47.6437 62.0473 46.9652 60.0746L45.184 54.8975L45.4857 49.7324" stroke="white" stroke-width="2" stroke-linecap="round" stroke-linejoin="round"/>
<path d="M30.8604 59.5863L33.2098 54.2911L39.2223 48.6582C40.9163 49.8791 41.2943 52.217 40.0681 53.8949L37.137 57.7138L35.8816 63.0723C35.8816 63.0723 38.4904 64.1201 41.9511 68.4952" stroke="white" stroke-width="2" stroke-linecap="round" stroke-linejoin="round"/>
<path d="M33.2125 41.7734L28.3463 47.0209C27.4217 48.0174 26.9092 49.3182 26.9092 50.668V63.8624C26.9092 65.3506 27.4423 66.791 28.4141 67.9307L32.1849 72.3523C33.2149 73.8286 33.7662 75.5781 33.7662 77.3706V82.1073" stroke="white" stroke-width="2" stroke-linecap="round" stroke-linejoin="round"/>
<path d="M47.8193 82.105V75.6796C47.8193 74.9743 47.9042 74.2726 48.0738 73.5876L50.1797 65.0511C50.4184 64.082 50.5396 63.0879 50.5396 62.0914V60.0137" stroke="white" stroke-width="2" stroke-linecap="round" stroke-linejoin="round"/>
<path d="M64.3864 25.895C64.3864 25.895 61.8237 36.779 60.7889 38.303L57.6724 43.9072C56.9078 44.9336 56.6315 46.2344 56.9138 47.4767L58.9568 56.4286C61.1172 55.4989 62.5143 53.3961 62.5143 51.0737V48.1749" stroke="white" stroke-width="2" stroke-linecap="round" stroke-linejoin="round"/>
<path d="M77.3517 25.895L74.3431 36.162C73.9335 37.6466 73.8463 39.568 74.0983 40.1575L76.0976 44.8393C76.5108 45.8072 76.6865 46.8574 76.609 47.9052L76.3642 51.2408" stroke="white" stroke-width="2" stroke-linecap="round" stroke-linejoin="round"/>
<path d="M67.3585 52.9448V55.8782L65.1544 59.9227C64.225 61.3369 64.5922 63.2213 65.9868 64.1975L68.7762 60.8059" stroke="white" stroke-width="2" stroke-linecap="round" stroke-linejoin="round"/>
<path d="M64.7053 61.009L63.4936 64.7886C61.4701 64.1823 60.3565 62.0473 61.0351 60.0746L62.8163 54.8975L62.5146 49.7324" stroke="white" stroke-width="2" stroke-linecap="round" stroke-linejoin="round"/>
<path d="M77.1395 59.5863L74.79 54.2911L68.7776 48.6582C67.0836 49.8791 66.7056 52.217 67.9318 53.8949L70.8629 57.7138L72.1182 63.0723C72.1182 63.0723 69.5094 64.1201 66.0488 68.4952" stroke="white" stroke-width="2" stroke-linecap="round" stroke-linejoin="round"/>
<path d="M74.7881 41.7734L79.6543 47.0209C80.5788 48.0174 81.0914 49.3182 81.0914 50.668V63.8624C81.0914 65.3506 80.5582 66.791 79.5865 67.9307L75.8156 72.3523C74.7857 73.8286 74.2344 75.5781 74.2344 77.3706V82.1073" stroke="white" stroke-width="2" stroke-linecap="round" stroke-linejoin="round"/>
<path d="M60.1802 82.105V75.6796C60.1802 74.9743 60.0954 74.2726 59.9258 73.5876L57.8198 65.0511C57.5811 64.082 57.46 63.0879 57.46 62.0914V60.0137" stroke="white" stroke-width="2" stroke-linecap="round" stroke-linejoin="round"/>
</g>
<defs>
<clipPath id="clip0_1016_445">
<rect width="56" height="58" fill="white" transform="translate(26 25)"/>
</clipPath>
</defs>
</svg>
