<svg width="108" height="108" viewBox="0 0 108 108" fill="none" xmlns="http://www.w3.org/2000/svg">
<path d="M53.9818 106.964C83.2428 106.964 106.964 83.2428 106.964 53.9818C106.964 24.7207 83.2428 1 53.9818 1C24.7207 1 1 24.7207 1 53.9818C1 83.2428 24.7207 106.964 53.9818 106.964Z" stroke="white" stroke-width="2" stroke-linecap="round" stroke-linejoin="round"/>
<g clip-path="url(#clip0_1135_445)">
<path d="M70.4412 69.6535C69.7594 69.9809 68.9668 69.9809 68.285 69.6535L65.7928 68.2301C64.5486 67.4628 64.5939 66.5159 64.5486 65.712L64.5611 61.1801C62.8968 61.1801 61.5469 59.8237 61.5469 58.1513V53.9165H71.4829C73.7461 53.9165 75.5803 55.7608 75.5803 58.0337V72.2917L79.1846 73.4964C80.9069 74.0286 82.1536 75.5316 82.3637 77.3292L83.0556 84.0492" stroke="white" stroke-width="2" stroke-linecap="round" stroke-linejoin="round"/>
<path d="M77.5234 82.4689V79.1519" stroke="white" stroke-width="2" stroke-linecap="round" stroke-linejoin="round"/>
<path d="M63.624 82.4689V79.1519" stroke="white" stroke-width="2" stroke-linecap="round" stroke-linejoin="round"/>
<path d="M64.7742 72.3511L61.9638 73.4989C60.2415 74.0311 58.9948 75.5341 58.7847 77.3317L58.0928 84.0517" stroke="white" stroke-width="2" stroke-linecap="round" stroke-linejoin="round"/>
<path d="M35.5161 53.918C33.2529 53.918 31.4187 55.761 31.4187 58.0352V72.2931L27.8144 73.4978C26.0921 74.03 24.8454 75.5331 24.6353 77.3306L23.9434 84.0507" stroke="white" stroke-width="2" stroke-linecap="round" stroke-linejoin="round"/>
<path d="M36.5576 69.6535C37.2395 69.9809 38.032 69.9809 38.7139 69.6535L41.2061 68.2301C42.4503 67.4628 42.405 66.516 42.4503 65.712L42.4377 61.1802" stroke="white" stroke-width="2" stroke-linecap="round" stroke-linejoin="round"/>
<path d="M29.4766 82.4694V79.1523" stroke="white" stroke-width="2" stroke-linecap="round" stroke-linejoin="round"/>
<path d="M43.375 82.4694V79.1523" stroke="white" stroke-width="2" stroke-linecap="round" stroke-linejoin="round"/>
<path d="M48.908 84.0517L48.2161 77.3317C48.006 75.5341 46.758 74.0298 45.037 73.4989L42.2266 72.3511" stroke="white" stroke-width="2" stroke-linecap="round" stroke-linejoin="round"/>
<path d="M48.9082 52.4278L60.0633 46.1135H76.4103C78.203 46.1135 79.7277 44.9632 80.2951 43.3578L80.8638 40.7246" stroke="white" stroke-width="2" stroke-linecap="round" stroke-linejoin="round"/>
<path d="M57.1621 42.1479V31.0895C57.1621 28.8027 59.0077 26.9482 61.2835 26.9482H76.4102C77.5487 26.9482 78.579 27.4122 79.3238 28.1605" stroke="white" stroke-width="2" stroke-linecap="round" stroke-linejoin="round"/>
<path d="M78.6057 31.5938H81.0022C81.5659 31.5938 82.0515 31.9932 82.1634 32.5482L82.5371 33.5797C82.6654 33.9349 82.7308 34.3091 82.7308 34.687V39.3668C82.7308 39.971 82.2427 40.4615 81.6413 40.4615H78.9479C78.3465 40.4615 77.8584 39.971 77.8584 39.3668V35.491C77.8584 34.8868 78.3465 34.3963 78.9479 34.3963H82.2137" stroke="white" stroke-width="2" stroke-linecap="round" stroke-linejoin="round"/>
<path d="M53.2992 49.5631L47.204 46.1121H30.857C29.0642 46.1121 27.5395 44.9618 26.9721 43.3563L26.25 40.5942" stroke="white" stroke-width="2" stroke-linecap="round" stroke-linejoin="round"/>
<path d="M58.3586 52.4278L56.8389 51.5669" stroke="white" stroke-width="2" stroke-linecap="round" stroke-linejoin="round"/>
<path d="M50.1041 42.1479V31.0895C50.1041 28.8027 48.2585 26.9482 45.9827 26.9482H30.856C29.7175 26.9482 28.6871 27.4122 27.9424 28.1605" stroke="white" stroke-width="2" stroke-linecap="round" stroke-linejoin="round"/>
<path d="M28.6613 31.5938H26.2647C25.7011 31.5938 25.2155 31.9932 25.1035 32.5482L24.7299 33.5797C24.6016 33.9349 24.5361 34.3091 24.5361 34.687V39.3668C24.5361 39.971 25.0243 40.4615 25.6256 40.4615H28.3191C28.9204 40.4615 29.4085 39.971 29.4085 39.3668V35.491C29.4085 34.8868 28.9204 34.3963 28.3191 34.3963H25.0532" stroke="white" stroke-width="2" stroke-linecap="round" stroke-linejoin="round"/>
<path d="M63.5874 37.7982C64.278 37.7982 64.8379 37.2356 64.8379 36.5417C64.8379 35.8477 64.278 35.2852 63.5874 35.2852C62.8968 35.2852 62.3369 35.8477 62.3369 36.5417C62.3369 37.2356 62.8968 37.7982 63.5874 37.7982Z" fill="white"/>
<path d="M68.0122 37.7982C68.7028 37.7982 69.2627 37.2356 69.2627 36.5417C69.2627 35.8477 68.7028 35.2852 68.0122 35.2852C67.3216 35.2852 66.7617 35.8477 66.7617 36.5417C66.7617 37.2356 67.3216 37.7982 68.0122 37.7982Z" fill="white"/>
<path d="M72.436 37.7982C73.1267 37.7982 73.6865 37.2356 73.6865 36.5417C73.6865 35.8477 73.1267 35.2852 72.436 35.2852C71.7454 35.2852 71.1855 35.8477 71.1855 36.5417C71.1855 37.2356 71.7454 37.7982 72.436 37.7982Z" fill="white"/>
<path d="M34.7378 37.7982C35.4284 37.7982 35.9883 37.2356 35.9883 36.5417C35.9883 35.8477 35.4284 35.2852 34.7378 35.2852C34.0472 35.2852 33.4873 35.8477 33.4873 36.5417C33.4873 37.2356 34.0472 37.7982 34.7378 37.7982Z" fill="white"/>
<path d="M39.1626 37.7982C39.8532 37.7982 40.4131 37.2356 40.4131 36.5417C40.4131 35.8477 39.8532 35.2852 39.1626 35.2852C38.472 35.2852 37.9121 35.8477 37.9121 36.5417C37.9121 37.2356 38.472 37.7982 39.1626 37.7982Z" fill="white"/>
<path d="M43.5864 37.7982C44.2771 37.7982 44.8369 37.2356 44.8369 36.5417C44.8369 35.8477 44.2771 35.2852 43.5864 35.2852C42.8958 35.2852 42.3359 35.8477 42.3359 36.5417C42.3359 37.2356 42.8958 37.7982 43.5864 37.7982Z" fill="white"/>
<path d="M35.1426 55.2898C35.2608 53.5946 36.7252 52.3166 38.4122 52.4354C39.864 52.5378 41.0063 53.6414 41.2214 55.0281C41.8303 54.3531 42.7286 53.9536 43.7036 54.0219C45.3906 54.1407 46.6625 55.6121 46.5442 57.3073C46.426 59.0025 44.9616 60.2805 43.2746 60.1617C42.9475 60.1389 42.6355 60.0631 42.3461 59.9468C42.0404 61.4321 40.6843 62.5003 39.1369 62.3916C38.294 62.3321 37.5542 61.9352 37.0397 61.3411" stroke="white" stroke-width="2" stroke-linecap="round" stroke-linejoin="round"/>
</g>
<defs>
<clipPath id="clip0_1135_445">
<rect width="61" height="59" fill="white" transform="translate(23 26)"/>
</clipPath>
</defs>
</svg>
